inDegrees=no
num_controls=7
num_derivatives=13
num_iterations=133
num_multipliers=7
num_parameters=0
num_slacks=7
num_states=26
objective=5.620731
objective_accelerations=0.606816
objective_balance=0.104060
objective_effort=0.444395
objective_height=4.362911
objective_ligament=0.102548
solver_duration=1618.977747
status=Solve_Succeeded
success=true
DataType=double
version=3
OpenSimVersion=4.4-2022-07-23-0e9fedc
endheader
time	/jointset/ground_pelvis/pelvis_tilt/value	/jointset/ground_pelvis/pelvis_tx/value	/jointset/ground_pelvis/pelvis_ty/value	/jointset/hip_l/hip_flexion_l/value	/jointset/hip_l/hip_adduction_l/value	/jointset/hip_l/hip_rotation_l/value	/jointset/back/lumbar_extension/value	/jointset/patellofemoral_l/patellar_flexion_l/value	/jointset/knee_l/knee_flexion_l/value	/jointset/knee_l/knee_adduction_l/value	/jointset/knee_l/knee_rotation_l/value	/jointset/ankle_l/ankle_angle_l/value	/jointset/subtalar_l/subtalar_angle_l/value	/jointset/ground_pelvis/pelvis_tilt/speed	/jointset/ground_pelvis/pelvis_tx/speed	/jointset/ground_pelvis/pelvis_ty/speed	/jointset/hip_l/hip_flexion_l/speed	/jointset/hip_l/hip_adduction_l/speed	/jointset/hip_l/hip_rotation_l/speed	/jointset/back/lumbar_extension/speed	/jointset/patellofemoral_l/patellar_flexion_l/speed	/jointset/knee_l/knee_flexion_l/speed	/jointset/knee_l/knee_adduction_l/speed	/jointset/knee_l/knee_rotation_l/speed	/jointset/ankle_l/ankle_angle_l/speed	/jointset/subtalar_l/subtalar_angle_l/speed	/forceset/tau_hip_flexion_l	/forceset/tau_hip_adduction_l	/forceset/tau_hip_rotation_l	/forceset/tau_knee_flexion_l	/forceset/tau_ankle_angle_l	/forceset/tau_subtalar_angle_l	/forceset/tau_lumbar_extension	lambda_cid13_p0	lambda_cid13_p1	lambda_cid13_p2	lambda_cid13_p3	lambda_cid13_p4	lambda_cid13_p5	lambda_cid14_p0	/jointset/ground_pelvis/pelvis_tilt/accel	/jointset/ground_pelvis/pelvis_tx/accel	/jointset/ground_pelvis/pelvis_ty/accel	/jointset/hip_l/hip_flexion_l/accel	/jointset/hip_l/hip_adduction_l/accel	/jointset/hip_l/hip_rotation_l/accel	/jointset/back/lumbar_extension/accel	/jointset/patellofemoral_l/patellar_flexion_l/accel	/jointset/knee_l/knee_flexion_l/accel	/jointset/knee_l/knee_adduction_l/accel	/jointset/knee_l/knee_rotation_l/accel	/jointset/ankle_l/ankle_angle_l/accel	/jointset/subtalar_l/subtalar_angle_l/accel	gamma_cid13_p0	gamma_cid13_p1	gamma_cid13_p2	gamma_cid13_p3	gamma_cid13_p4	gamma_cid13_p5	gamma_cid14_p0
0	-0.1601492591309941	0.05856788727913465	0.8979981466829923	0.3774920279260975	-0.2591458558765237	-0.2728187654698427	-0.0126506700172305	0.03223623128436616	0.03223623128433527	-0.174532761816095	0.1743826304164509	-0.04231376238535053	-0.009272043437602535	0	0	0	0	0	0	0	0	0	0	0	0	0	0.1563096233014524	-0.08106500121138659	-0.05311543708937909	-0.3154832976218365	0.3233391707862259	-0.04901539271965807	-0.09844977475565404	61.33843208263433	4.274583749719914	6.081240278903498	-7.813537805147845	-590.9100553358739	-70.52860693782596	-39.06953146124386	-4.426086152783803	-2.107290784051443	-1.099313342348361	12.38907386395216	-1.174718998162306	2.957668358475753	-5.734273035357641	8.700547523928975	8.700547523930068	0.1426488604889727	0.05280436752489992	0.8334406309014727	-1.010898249335649	-2.636851295288021e-08	8.906796596709151e-08	6.656381128511491e-08	2.836425485726049e-09	5.397296023880902e-08	3.626089401690047e-09	-9.070304297474616e-09
0.01	-0.1603633521228099	0.0584636937718719	0.8979443914967917	0.3780966194533638	-0.2592043551137632	-0.2726712446473658	-0.01293839618216657	0.03266140876666891	0.03266140876663013	-0.1745275960714598	0.1743823915229479	-0.04227458729737767	-0.009322917362683631	-0.04258423427883661	-0.02075774632033328	-0.01071118752795923	0.120359151531161	-0.01163713470282026	0.02937463611196865	-0.05715747930304541	0.08466734715916632	0.08466734715916303	0.001037118977795782	-4.773269004318479e-05	0.007793164206340012	-0.01012175946506708	0.1493334542198873	-0.08972513396680318	-0.05163783993020358	-0.3067207874788497	0.3095157916461742	-0.03493711463798479	-0.09290606976149018	57.4177540152662	-0.8990533103288145	6.615840802338173	-6.035531755547129	-591.864694674587	-80.27539276586478	-39.08168291030907	-4.139444378275829	-2.047872720774222	-1.051033206897406	11.77545669506229	-1.148823953125355	2.907924727410324	-5.648322323670441	8.294607731408005	8.294607731406924	0.08486069962361573	-0.03356091809891464	0.7459747243084959	-1.004882401771306	-4.69850013394045e-08	1.090724518029996e-07	9.7186275269112e-08	1.826697912296925e-08	-5.788409469166779e-08	1.623917464455949e-08	-1.469163856230766e-08
0.02	-0.1609962579200154	0.05815435156845319	0.8977847220855353	0.3798880266753912	-0.259377348347391	-0.272233864765801	-0.01378606452931877	0.03392221560444741	0.03392221560444245	-0.1745119356792187	0.1743816755363949	-0.04215873648558111	-0.009473422403750998	-0.08376256107123189	-0.04102973923119106	-0.02118284501117923	0.2373631389568567	-0.02289879927701343	0.05797181181805522	-0.1119884364416713	0.1671258710982329	0.1671258710982295	0.002098929283495225	-9.541861328622114e-05	0.01533514476499462	-0.01992622319732489	0.1423572851383531	-0.09838526672218074	-0.05016024277092646	-0.2979582773358559	0.2956924125061509	-0.02085883655626822	-0.08736236476731633	53.57199334280374	-6.085372639374317	7.151969967069237	-4.366236264728115	-591.6620031458483	-89.92009344238099	-39.11759515302767	-4.144904655494857	-2.010140102157011	-1.05140733340062	11.71804104285904	-1.099624972438017	2.802176277299265	-5.26896860247323	8.258782879909184	8.258782879910907	0.1475871260675116	0.05281372088510966	0.7832039013632899	-0.9474391027751554	-6.760148972592879e-08	1.290769376389078e-07	1.278087392531091e-07	3.369753276021245e-08	-1.697411496221446e-07	2.885225988742893e-08	-2.031297282714071e-08
0.03	-0.16203447776048	0.05764506755454905	0.8975213128993176	0.3828330777715966	-0.2596609066307774	-0.2715144943215493	-0.01517008719530672	0.03599678835768221	0.03599678835767049	-0.174485440394145	0.1743806372921275	-0.04196821406039192	-0.009720113698329163	-0.1236684437781711	-0.06070901204370516	-0.03147560595769994	0.3510721071613734	-0.03374174849391721	0.08576606772630858	-0.1644312205944215	0.2474231905417334	0.2474231905417384	0.003193812431325371	-0.0001048475854332869	0.02277256814507597	-0.02934182607193459	0.1362553981158506	-0.09241962186297134	-0.0492742103287445	-0.2923553436051617	0.290513790576272	-0.02323719924633579	-0.08234264988343679	51.85349855457664	-4.873347323206506	7.097856126237657	-4.060367513669122	-591.5772933122881	-86.50464052458443	-39.17612815998567	-3.881493310060826	-1.92910634527201	-1.014736934370695	11.11106754592336	-1.065985081782611	2.747601772596814	-5.174201896096482	7.860387211053705	7.860387211053718	0.08952314766922034	-0.02672911603761473	0.7244919928106499	-0.9281237071348915	-8.555169817455487e-08	1.336959174110922e-07	1.544199685721136e-07	4.932997174426021e-08	-2.693549204788555e-07	2.811617248881813e-08	-2.52362560457057e-08
0.04	-0.1634653690743924	0.05694253371762237	0.8971556708118166	0.3868979671171678	-0.2600507654434279	-0.2705212710132159	-0.01706699141770841	0.03886337045226162	0.03886337045225908	-0.1744481794297555	0.1743797231761592	-0.04170322131410657	-0.01005886158711942	-0.1622968557557089	-0.07967970383569577	-0.04162942526785594	0.4613307888328667	-0.04415890512947956	0.1127423846349078	-0.2145647477238823	0.3255277393645671	0.325527739364572	0.004252065120271918	-7.059294850074128e-05	0.0302292089843509	-0.03833754203980045	0.1301535110934537	-0.08645397700375292	-0.04838817788661234	-0.2867524098743654	0.285335168646439	-0.02561556193638344	-0.07732293499950869	50.20364256930607	-3.671350972500706	7.043071884347495	-3.859922675822184	-590.4488444359375	-82.99135795705563	-39.25597956830428	-3.889410509613768	-1.868423898053103	-1.023619006127719	11.02798373625445	-1.014466456170004	2.638588477368392	-4.80711719781488	7.820228755775989	7.820228755775995	0.1402610342902975	0.06155044270110322	0.7870473932010094	-0.8634617214268901	-1.034469317791006e-07	1.379976702541278e-07	1.809484920217368e-07	6.496657331277815e-08	-3.687162524886846e-07	2.710484441718713e-08	-3.014514645919299e-08
0.05	-0.1652764764779846	0.05605355187321229	0.8966889512088191	0.3920491988359677	-0.260542510874676	-0.2692623657612357	-0.01945346035426597	0.04250041283997605	0.04250041283997452	-0.1744003491402238	0.17437945370761	-0.04136379837650861	-0.01048538453140597	-0.1997004551270496	-0.09802384845417073	-0.05170749081055101	0.5683642917052311	-0.05410934615685344	0.138910672034194	-0.262364570275974	0.4015085952376375	0.4015085952376374	0.005305848598691615	1.120187397778122e-05	0.03762086018744566	-0.04689761159440309	0.1225817682556313	-0.08371254785335026	-0.04711144179975455	-0.2792466067597859	0.2760266806144405	-0.02337260680694874	-0.07138169644878024	47.39508581978343	-4.183596223978774	7.158875777347751	-2.723351605703123	-589.3505958686316	-82.77055084577535	-39.35548579471042	-3.632216393128062	-1.803474137443184	-0.9989241964308072	10.45832942397546	-0.9732292678184982	2.58672371774559	-4.711744385840935	7.431198630926817	7.431198630925995	0.08675243424002763	-0.01935514576029897	0.7100401735611507	-0.8419055385936114	-1.14977431325065e-07	1.505265560053723e-07	1.962755750303156e-07	7.577748749295839e-08	-4.302938950742489e-07	3.447596588160121e-08	-3.244385507698886e-08
0.06	-0.1674548962237646	0.05498391570387539	0.8961216461767768	0.398254224755721	-0.2611313399845576	-0.2677456226659495	-0.02230699343673432	0.04688610071200076	0.04688610071199917	-0.1743422179299096	0.1743798323576974	-0.04095149568894076	-0.01099543336446175	-0.235759324187624	-0.1158105688210614	-0.06174651107683787	0.6720896290275004	-0.06357564085612782	0.1643099532949612	-0.3079775769053435	0.4752568362248781	0.4752568362248732	0.006312249261983188	5.9030785193591e-05	0.04480515897842605	-0.0550427197936841	0.1150100254178233	-0.08097111870296371	-0.04583470571300871	-0.2717408036451949	0.2667181925824392	-0.0211296516775286	-0.06544045789802462	44.64662025839958	-4.703591555461728	7.272751660564541	-1.683267116661462	-587.3309343632354	-82.46060136996977	-39.47288474170897	-3.620464447459714	-1.75693904773702	-1.015809950846108	10.36635062623553	-0.9176371905502387	2.48478724966456	-4.369754013269967	7.373705778610162	7.373705778610183	0.1307844712644601	0.05475726044859099	0.7455769107771896	-0.7804694503629153	-1.262399420685627e-07	1.634018473527518e-07	2.111310184413767e-07	8.638521483573493e-08	-4.902806454735281e-07	4.220003258963825e-08	-3.463266130338718e-08
0.07000000000000001	-0.1699877800488496	0.0537393348686143	0.8954539623026018	0.4054808243740322	-0.2618123069037723	-0.2659788164599074	-0.02560533341856064	0.0519986786125512	0.05199867861254216	-0.174274112012161	0.1743807846136029	-0.04046800827455857	-0.01158467741512305	-0.2706038945492008	-0.1329955001436285	-0.07179376469954209	0.7726749375684834	-0.07253138514998834	0.1889202484155545	-0.351336027480048	0.5468887110004024	0.5468887110004037	0.007295916626103666	0.0001295372332147319	0.05187749020664185	-0.06272757627739346	0.1077010639886543	-0.07771866702009955	-0.04474894426176443	-0.2658636045207498	0.2600550847933095	-0.02004213623616645	-0.05964445275709399	42.69066975295964	-4.866891811099338	7.337010649101679	-1.266330182446093	-585.6045202578847	-81.46557258481791	-39.60610729209265	-3.384428641022894	-1.682738057859745	-0.999806992500522	9.821300276060443	-0.8716123866181724	2.429464312018493	-4.265731781292861	7.002430347705605	7.002430347706464	0.08024780839236365	-0.01711411351024833	0.685828909465201	-0.7507650620427433	-1.329767213636317e-07	1.648212954698074e-07	2.214310533993713e-07	9.411996584969623e-08	-5.282640246286932e-07	4.341530216344315e-08	-3.616406752969879e-08
0.08	-0.1728627046396866	0.05232621114345671	0.8946856811072958	0.4136966129393357	-0.2625802451334887	-0.2639698445689037	-0.02932662614648453	0.05781647566499384	0.05781647566499301	-0.1741965514328611	0.1743823796438752	-0.03991424401177072	-0.01224842429355506	-0.3041674773313012	-0.1495191468003575	-0.08186597530301798	0.8699274184306854	-0.08096990295642241	0.2127430902866243	-0.3925681261235377	0.6163006666032066	0.6163006666032133	0.008203181566476345	0.0001875856616678497	0.05886052865970216	-0.06994328534782271	0.1003921025594975	-0.07446621533723169	-0.04366318281055707	-0.2599864053962931	0.2533919770041876	-0.0189546207947983	-0.0538484476161552	40.78705442875138	-5.035999966301564	7.398364034903066	-0.9375925189242353	-583.0805210042677	-80.38999635771903	-39.75301731415436	-3.364266931563646	-1.624682114570172	-1.020801347000465	9.699785090479477	-0.8141918930650189	2.327296599759852	-3.944483627026548	6.92972194406625	6.929721944066134	0.1155039865147976	0.05226565653498112	0.7277183557451963	-0.6866399677071797	-1.394215179846084e-07	1.655016569268421e-07	2.314371910378132e-07	1.016693635521211e-07	-5.648278314455282e-07	4.421064934149115e-08	-3.765306085277899e-08
0.09	-0.1760674098316147	0.05075111640066136	0.8938163862332081	0.4228692861950007	-0.2634299240133288	-0.2617266211407825	-0.03344922361853706	0.06431786963004156	0.06431786963003175	-0.1741101850522211	0.1743847178507592	-0.03929095216210172	-0.01298189849617333	-0.3365661374956372	-0.1653900120782733	-0.09200534578721654	0.96406325618247	-0.08887639422772839	0.235775680073568	-0.4316068554307748	0.6836070604008873	0.6836070604008906	0.009052578235663933	0.0002727323595351053	0.06577821990977785	-0.07667178687789515	0.09274664790086426	-0.07139502974369137	-0.04255739138754842	-0.254350830111076	0.2468436326291922	-0.01753706179785134	-0.04782899249920122	38.91064291602712	-5.341187624360549	7.467679528181717	-0.5804055876326227	-580.8746147930966	-79.55086547188382	-39.91126286305642	-3.146558743252877	-1.551799828410747	-1.012470396597064	9.188868502911497	-0.765478678970091	2.272319172682127	-3.831890652899333	6.575445751824026	6.575445751823569	0.06707408517289934	-0.01449213898754845	0.6708432870475243	-0.6540407710587154	-1.418800943117453e-07	1.591801767817429e-07	2.379783241511806e-07	1.060289571003141e-07	-5.809603407648988e-07	4.258897195884666e-08	-3.868261905737839e-08
